<svg width="500" height="500" viewBox="0 0 500 500" fill="none" xmlns="http://www.w3.org/2000/svg">
<g id="playlist_image_main" clip-path="url(#clip0_0_1)">
<rect width="500" height="500" fill="#292929"/>
<g id="lines" opacity="0.5">
<line id="Line 34" opacity="0.5" x1="528.353" y1="29.3536" x2="28.3534" y2="529.354" stroke="#6633CC"/>
<line id="Line 33" opacity="0.5" x1="528.353" y1="26.3536" x2="28.3534" y2="526.354" stroke="#6633CC"/>
<line id="Line 32" opacity="0.5" x1="522.353" y1="29.3536" x2="22.3534" y2="529.354" stroke="#6633CC"/>
<line id="Line 31" opacity="0.5" x1="522.353" y1="26.3536" x2="22.3534" y2="526.354" stroke="#6633CC"/>
<line id="Line 30" opacity="0.5" x1="519.353" y1="26.3536" x2="19.3534" y2="526.354" stroke="#6633CC"/>
<line id="Line 29" opacity="0.5" x1="519.354" y1="23.3536" x2="19.3535" y2="523.354" stroke="#6633CC"/>
<line id="Line 28" opacity="0.5" x1="512.354" y1="21.3536" x2="12.3535" y2="521.354" stroke="#6633CC"/>
<line id="Line 27" opacity="0.5" x1="512.354" y1="18.3536" x2="12.3535" y2="518.354" stroke="#6633CC"/>
<line id="Line 26" opacity="0.5" x1="513.354" y1="26.3536" x2="13.3535" y2="526.354" stroke="#6633CC"/>
<line id="Line 25" opacity="0.5" x1="513.354" y1="23.3536" x2="13.3535" y2="523.354" stroke="#6633CC"/>
<line id="Line 24" opacity="0.5" x1="481.353" y1="-7.64645" x2="-18.6465" y2="492.354" stroke="#6633CC"/>
<line id="Line 23" opacity="0.5" x1="481.353" y1="-10.6464" x2="-18.6465" y2="489.354" stroke="#6633CC"/>
<line id="Line 22" opacity="0.5" x1="474.354" y1="-12.6464" x2="-25.6465" y2="487.354" stroke="#6633CC"/>
<line id="Line 21" opacity="0.5" x1="474.354" y1="-15.6464" x2="-25.6465" y2="484.354" stroke="#6633CC"/>
<line id="Line 13" opacity="0.5" x1="487.354" y1="-4.64645" x2="-12.6465" y2="495.354" stroke="#6633CC"/>
<line id="Line 14" opacity="0.5" x1="487.354" y1="-1.64645" x2="-12.6465" y2="498.354" stroke="#6633CC"/>
<line id="Line 15" opacity="0.5" x1="486.354" y1="-9.64645" x2="-13.6465" y2="490.354" stroke="#6633CC"/>
<line id="Line 16" opacity="0.5" x1="486.354" y1="-6.64645" x2="-13.6465" y2="493.354" stroke="#6633CC"/>
<line id="Line 17" opacity="0.5" x1="493.354" y1="-4.64645" x2="-6.64649" y2="495.354" stroke="#6633CC"/>
<line id="Line 18" opacity="0.5" x1="493.354" y1="-1.64645" x2="-6.64649" y2="498.354" stroke="#6633CC"/>
<line id="Line 19" opacity="0.5" x1="475.354" y1="-10.6464" x2="-24.6465" y2="489.354" stroke="#6633CC"/>
<line id="Line 20" opacity="0.5" x1="475.354" y1="-7.64645" x2="-24.6465" y2="492.354" stroke="#6633CC"/>
<line id="Line 1" opacity="0.5" x1="500.354" y1="0.353553" x2="0.35351" y2="500.354" stroke="#6633CC"/>
<line id="Line 2" opacity="0.5" x1="500.354" y1="3.35355" x2="0.35351" y2="503.354" stroke="#6633CC"/>
<line id="Line 3" opacity="0.5" x1="499.354" y1="-4.64645" x2="-0.64649" y2="495.354" stroke="#6633CC"/>
<line id="Line 4" opacity="0.5" x1="499.354" y1="-1.64645" x2="-0.64649" y2="498.354" stroke="#6633CC"/>
<line id="Line 5" opacity="0.5" x1="506.354" y1="0.353553" x2="6.35351" y2="500.354" stroke="#6633CC"/>
<line id="Line 6" opacity="0.5" x1="506.354" y1="3.35355" x2="6.35351" y2="503.354" stroke="#6633CC"/>
<line id="Line 7" opacity="0.5" x1="510.354" y1="8.35355" x2="10.3535" y2="508.354" stroke="#6633CC"/>
<line id="Line 8" opacity="0.5" x1="510.354" y1="11.3536" x2="10.3535" y2="511.354" stroke="#6633CC"/>
<line id="Line 9" opacity="0.5" x1="509.354" y1="3.35355" x2="9.35351" y2="503.354" stroke="#6633CC"/>
<line id="Line 10" opacity="0.5" x1="509.354" y1="6.35355" x2="9.35351" y2="506.354" stroke="#6633CC"/>
<line id="Line 11" opacity="0.5" x1="516.354" y1="8.35355" x2="16.3535" y2="508.354" stroke="#6633CC"/>
<line id="Line 12" opacity="0.5" x1="516.354" y1="11.3536" x2="16.3535" y2="511.354" stroke="#6633CC"/>
</g>
<g id="rect_sides">
<path id="top_left_rect" opacity="0.8" d="M500 500H400V500C400 444.772 444.772 400 500 400V400V500Z" fill="#6633CC"/>
<path id="top_left_rect_2" opacity="0.8" d="M0 0H100V0C100 55.2285 55.2285 100 0 100V100V0Z" fill="#6633CC"/>
</g>
<g id="elipses">
<circle id="Ellipse 1" opacity="0.7" cx="82" cy="151" r="25" fill="#6633CC"/>
<circle id="Ellipse 2" opacity="0.55" cx="389.5" cy="48.5" r="37.5" fill="#6633CC"/>
<circle id="Ellipse 7" opacity="0.75" cx="-9" cy="342" r="50" fill="#6633CC"/>
<circle id="Ellipse 3" opacity="0.6" cx="434" cy="207" r="15" fill="#6633CC"/>
<circle id="Ellipse 4" opacity="0.75" cx="145" cy="484" r="45" fill="#6633CC"/>
<circle id="Ellipse 5" opacity="0.6" cx="329.5" cy="343.5" r="22.5" fill="#6633CC"/>
<circle id="Ellipse 6" opacity="0.55" cx="238.5" cy="126.5" r="17.5" fill="#6633CC"/>
</g>
<g id="grid_lines">
<line id="Line 50" opacity="0.4" x1="82.3071" y1="149.605" x2="330.307" y2="342.605" stroke="white"/>
<line id="Line 35" opacity="0.4" x1="81.9214" y1="150.506" x2="238.921" y2="125.506" stroke="white"/>
<line id="Line 36" opacity="0.4" x1="238.771" y1="125.556" x2="389.771" y2="47.5558" stroke="white"/>
<line id="Line 37" opacity="0.4" x1="389.481" y1="46.8646" x2="434.481" y2="206.865" stroke="white"/>
<line id="Line 38" opacity="0.4" x1="434.398" y1="207.302" x2="330.398" y2="344.302" stroke="white"/>
<line id="Line 39" opacity="0.4" x1="331.999" y1="343.5" x2="-9.00151" y2="342.512" stroke="white"/>
<line id="Line 40" opacity="0.4" x1="82.4514" y1="151.215" x2="-8.54861" y2="342.215" stroke="white"/>
<line id="Line 41" opacity="0.4" x1="144.661" y1="484.368" x2="-9.33894" y2="342.368" stroke="white"/>
<line id="Line 42" opacity="0.4" x1="145.516" y1="483.874" x2="238.516" y2="125.874" stroke="white"/>
<line id="Line 43" opacity="0.4" x1="145.697" y1="483.602" x2="329.697" y2="343.602" stroke="white"/>
<line id="Line 44" opacity="0.4" x1="82.0799" y1="149.506" x2="434.08" y2="206.506" stroke="white"/>
<line id="Line 45" opacity="0.4" x1="390.436" y1="48.2449" x2="145.436" y2="484.245" stroke="white"/>
<line id="Line 46" opacity="0.4" x1="82.4913" y1="150.907" x2="145.491" y2="483.907" stroke="white"/>
<line id="Line 47" opacity="0.4" x1="239.328" y1="126.377" x2="-8.6716" y2="342.377" stroke="white"/>
<line id="Line 48" opacity="0.4" x1="239.461" y1="125.807" x2="330.461" y2="343.807" stroke="white"/>
<line id="Line 49" opacity="0.4" x1="238.191" y1="125.538" x2="434.191" y2="206.538" stroke="white"/>
</g>
<path id="main_text" d="M122.818 410.624C121.55 411.891 120.283 411.891 119.016 410.624L92.1348 383.742C90.8677 382.475 90.8677 381.208 92.1348 379.941C93.4019 378.674 94.6691 378.674 95.9362 379.941L120.917 404.921L133.452 392.386C134.72 391.119 135.987 391.119 137.254 392.386C138.521 393.653 138.521 394.92 137.254 396.187L122.818 410.624ZM159.632 391.911C157.444 394.099 155.257 395.185 153.07 395.17C150.913 395.155 148.74 394.053 146.553 391.866C145.286 390.599 145.286 389.332 146.553 388.065C147.82 386.798 149.087 386.798 150.354 388.065C151.486 389.196 152.391 389.769 153.07 389.784C153.779 389.799 154.699 389.241 155.83 388.11L164.61 379.331C165.726 378.214 166.277 377.302 166.262 376.593C166.262 375.899 165.696 374.986 164.564 373.855L158.817 368.107C159.27 370.37 159.096 372.308 158.297 373.923C157.512 375.522 156.419 377.023 155.016 378.425L152.798 380.643C149.811 383.63 146.9 385.123 144.064 385.123C141.228 385.123 138.332 383.645 135.375 380.688L123.021 368.334C121.753 367.066 121.753 365.799 123.021 364.532C124.288 363.265 125.555 363.265 126.822 364.532L139.176 376.887C141.077 378.787 142.706 379.738 144.064 379.738C145.437 379.723 147.081 378.757 148.997 376.842L151.214 374.624C153.688 372.15 155.084 369.955 155.4 368.039C155.702 366.109 155.031 364.321 153.387 362.677L141.032 350.322C139.765 349.055 139.765 347.788 141.032 346.521C142.299 345.254 143.566 345.254 144.833 346.521L168.366 370.053C170.553 372.241 171.647 374.42 171.647 376.593C171.662 378.78 170.583 380.96 168.411 383.132L159.632 391.911ZM177.176 356.265C175.909 357.532 174.642 357.532 173.375 356.265L154.232 337.122C152.965 335.855 152.965 334.588 154.232 333.321C155.499 332.053 156.766 332.053 158.034 333.321L159.799 335.085C159.482 332.989 159.701 330.945 160.455 328.953C161.224 326.947 162.499 325.054 164.279 323.274C165.546 322.007 166.813 322.007 168.08 323.274C169.347 324.541 169.347 325.808 168.08 327.075C165.47 329.685 163.962 332.159 163.555 334.497C163.147 336.835 163.698 338.834 165.207 340.493L177.176 352.463C178.444 353.73 178.444 354.998 177.176 356.265ZM169.201 310.93C167.768 312.363 166.327 312.356 164.879 310.908L163.544 309.573C162.126 308.155 162.133 306.729 163.566 305.296L164.879 303.984C166.251 302.611 167.647 302.634 169.065 304.052L170.4 305.387C171.848 306.835 171.886 308.245 170.513 309.618L169.201 310.93ZM196.489 336.952C195.222 338.219 193.955 338.219 192.688 336.952L173.545 317.809C172.278 316.542 172.278 315.275 173.545 314.008C174.812 312.741 176.079 312.741 177.346 314.008L196.489 333.15C197.756 334.418 197.756 335.685 196.489 336.952ZM215.586 317.855C212.585 320.857 209.628 322.365 206.717 322.38C203.805 322.365 200.848 320.857 197.847 317.855L192.597 312.605C189.58 309.588 188.064 306.639 188.049 303.758C188.049 300.861 189.58 297.912 192.642 294.91L196.353 291.2C198.601 288.952 200.743 287.564 202.779 287.036C204.831 286.493 206.822 286.825 208.753 288.032C209.522 288.53 209.899 289.133 209.884 289.842C209.884 290.536 209.552 291.215 208.889 291.878C208.3 292.467 207.72 292.746 207.146 292.716C206.573 292.685 205.902 292.512 205.133 292.195C204.499 292.014 203.805 292.15 203.051 292.602C202.282 293.04 201.316 293.839 200.155 295.001L196.444 298.712C194.468 300.628 193.472 302.302 193.457 303.735C193.442 305.138 194.422 306.828 196.398 308.804L201.648 314.053C203.609 316.014 205.299 316.995 206.717 316.995C208.15 316.98 209.839 315.999 211.785 314.053L215.496 310.342C216.657 309.181 217.465 308.223 217.917 307.469C218.355 306.699 218.483 305.998 218.302 305.364C217.955 304.565 217.774 303.886 217.759 303.328C217.759 302.755 218.06 302.166 218.664 301.563C219.297 300.929 219.961 300.613 220.655 300.613C221.364 300.598 221.967 300.975 222.465 301.744C223.657 303.66 223.989 305.651 223.461 307.718C222.933 309.754 221.545 311.896 219.297 314.144L215.586 317.855ZM241.158 292.283C238.624 294.817 236.12 296.085 233.646 296.085C231.172 296.085 228.668 294.817 226.133 292.283C223.599 289.749 222.324 287.252 222.309 284.794C222.309 282.32 223.584 279.808 226.133 277.259L235.705 267.687C234.03 266.194 232.537 265.53 231.224 265.696C229.897 265.847 228.336 266.82 226.541 268.615L223.916 271.24C222.407 272.748 221.389 273.978 220.861 274.928C220.318 275.863 220.16 276.746 220.386 277.575C220.748 278.48 220.906 279.197 220.861 279.725C220.816 280.253 220.507 280.804 219.933 281.377C219.3 282.01 218.629 282.335 217.92 282.35C217.195 282.35 216.615 281.98 216.177 281.241C214.925 279.084 214.623 276.897 215.272 274.679C215.921 272.431 217.535 270.018 220.114 267.438L222.739 264.814C225.756 261.797 228.713 260.288 231.609 260.288C234.505 260.288 237.462 261.797 240.479 264.814L252.653 276.987C253.92 278.254 253.92 279.521 252.653 280.788C251.385 282.056 250.118 282.056 248.851 280.788L247.833 279.77C248.165 283.33 246.785 286.657 243.692 289.749L241.158 292.283ZM237.356 288.482L239.891 285.948C241.007 284.831 241.957 283.685 242.742 282.508C243.511 281.316 243.971 280.102 244.122 278.865C244.288 277.613 243.979 276.369 243.194 275.132L239.529 271.466L229.935 281.06C228.441 282.553 227.695 283.798 227.695 284.794C227.71 285.774 228.456 287.003 229.935 288.482C231.428 289.975 232.665 290.729 233.646 290.745C234.626 290.729 235.863 289.975 237.356 288.482ZM270.365 263.076C268.057 265.384 265.772 266.538 263.509 266.538C261.246 266.508 258.961 265.339 256.653 263.031L233.573 239.951C232.306 238.684 232.306 237.417 233.573 236.15C234.84 234.882 236.107 234.882 237.374 236.15L260.454 259.23C261.676 260.451 262.694 261.077 263.509 261.108C264.323 261.108 265.342 260.497 266.564 259.275C267.861 257.977 269.143 257.962 270.41 259.23C271.723 260.451 271.708 261.734 270.365 263.076ZM295.175 238.266C293.908 239.533 292.641 239.533 291.373 238.266L264.492 211.385C263.225 210.118 263.225 208.851 264.492 207.583L275.082 196.994C277.842 194.233 280.693 192.861 283.635 192.876C286.576 192.861 289.427 194.233 292.188 196.994L293.546 198.352C296.306 201.112 297.686 203.971 297.686 206.927C297.686 209.854 296.306 212.697 293.546 215.458L284.857 224.147L295.175 234.465C296.442 235.732 296.442 236.999 295.175 238.266ZM281.055 220.345L289.744 211.656C291.464 209.937 292.324 208.353 292.324 206.905C292.324 205.457 291.464 203.873 289.744 202.153L288.387 200.795C286.682 199.091 285.106 198.238 283.657 198.238C282.194 198.223 280.603 199.076 278.883 200.795L270.194 209.484L281.055 220.345ZM327.862 205.58C325.554 207.888 323.268 209.042 321.005 209.042C318.743 209.011 316.457 207.842 314.149 205.534L291.069 182.454C289.802 181.187 289.802 179.92 291.069 178.653C292.337 177.386 293.604 177.386 294.871 178.653L317.951 201.733C319.173 202.955 320.191 203.581 321.005 203.611C321.82 203.611 322.838 203 324.06 201.778C325.357 200.481 326.64 200.466 327.907 201.733C329.219 202.955 329.204 204.237 327.862 205.58ZM342.716 190.725C340.182 193.259 337.678 194.526 335.204 194.526C332.73 194.526 330.226 193.259 327.692 190.725C325.157 188.191 323.883 185.694 323.867 183.235C323.867 180.761 325.142 178.25 327.692 175.7L337.263 166.129C335.588 164.636 334.095 163.972 332.783 164.138C331.455 164.289 329.894 165.262 328.099 167.057L325.474 169.682C323.966 171.19 322.947 172.419 322.419 173.37C321.876 174.305 321.718 175.188 321.944 176.017C322.306 176.922 322.465 177.639 322.419 178.167C322.374 178.695 322.065 179.245 321.492 179.819C320.858 180.452 320.187 180.776 319.478 180.792C318.754 180.792 318.173 180.422 317.735 179.683C316.483 177.526 316.182 175.338 316.83 173.121C317.479 170.873 319.093 168.46 321.673 165.88L324.297 163.255C327.314 160.238 330.271 158.73 333.167 158.73C336.064 158.73 339.02 160.238 342.037 163.255L354.211 175.429C355.478 176.696 355.478 177.963 354.211 179.23C352.944 180.497 351.677 180.497 350.409 179.23L349.391 178.212C349.723 181.772 348.343 185.098 345.25 188.191L342.716 190.725ZM338.915 186.924L341.449 184.389C342.565 183.273 343.516 182.127 344.3 180.95C345.069 179.758 345.529 178.544 345.68 177.307C345.846 176.055 345.537 174.81 344.753 173.573L341.087 169.908L331.493 179.502C330 180.995 329.253 182.24 329.253 183.235C329.268 184.216 330.015 185.445 331.493 186.924C332.986 188.417 334.223 189.171 335.204 189.186C336.184 189.171 337.421 188.417 338.915 186.924ZM372.874 160.568C369.872 163.57 366.915 165.078 364.004 165.093C361.092 165.078 358.136 163.57 355.134 160.568L349.884 155.318C346.867 152.301 345.351 149.352 345.336 146.471C345.336 143.574 346.867 140.625 349.929 137.623L353.64 133.913C355.888 131.665 358.03 130.277 360.066 129.749C362.118 129.206 364.109 129.538 366.04 130.745C366.809 131.242 367.186 131.846 367.171 132.555C367.171 133.249 366.84 133.928 366.176 134.591C365.587 135.18 365.007 135.459 364.433 135.429C363.86 135.398 363.189 135.225 362.42 134.908C361.786 134.727 361.092 134.863 360.338 135.315C359.569 135.753 358.603 136.552 357.442 137.714L353.731 141.425C351.755 143.341 350.759 145.015 350.744 146.448C350.729 147.851 351.709 149.541 353.685 151.517L358.935 156.766C360.896 158.727 362.586 159.708 364.004 159.708C365.437 159.693 367.126 158.712 369.072 156.766L372.783 153.055C373.945 151.894 374.752 150.936 375.204 150.182C375.642 149.412 375.77 148.711 375.589 148.077C375.242 147.278 375.061 146.599 375.046 146.041C375.046 145.468 375.347 144.879 375.951 144.276C376.584 143.642 377.248 143.326 377.942 143.326C378.651 143.31 379.254 143.688 379.752 144.457C380.944 146.373 381.276 148.364 380.748 150.431C380.22 152.467 378.832 154.609 376.584 156.857L372.874 160.568ZM385.074 128.546L386.16 129.632C388.106 131.578 389.788 132.551 391.206 132.551C392.609 132.536 394.29 131.548 396.252 129.587L399.962 125.876C401.501 124.337 402.497 123.055 402.949 122.029C403.402 121.003 403.387 120.008 402.904 119.042C402.497 118.303 402.285 117.64 402.27 117.051C402.27 116.448 402.572 115.844 403.176 115.241C403.809 114.607 404.458 114.291 405.121 114.291C405.785 114.291 406.374 114.668 406.886 115.422C408.425 117.624 408.93 119.91 408.402 122.278C407.874 124.646 406.328 127.113 403.764 129.677L400.053 133.388C397.051 136.39 394.094 137.899 391.183 137.914C388.287 137.914 385.345 136.42 382.358 133.433L377.109 128.184C374.046 125.122 372.523 122.15 372.538 119.269C372.553 116.357 374.077 113.416 377.109 110.444L380.82 106.733C383.837 103.716 386.793 102.208 389.69 102.208C392.571 102.193 395.527 103.701 398.56 106.733L400.822 108.996C402.089 110.263 402.089 111.53 400.822 112.797L385.074 128.546ZM380.91 114.245C378.919 116.176 377.923 117.851 377.923 119.269C377.923 120.687 378.919 122.391 380.91 124.382L381.272 124.745L395.12 110.897L394.758 110.535C392.782 108.558 391.092 107.578 389.69 107.593C388.287 107.578 386.597 108.558 384.621 110.535L380.91 114.245Z" fill="#6633CC"/>
</g>
<defs>
<clipPath id="clip0_0_1">
<rect width="500" height="500" fill="white"/>
</clipPath>
</defs>
</svg>
