<svg width="24" height="24" viewBox="0 0 24 24" fill="none" xmlns="http://www.w3.org/2000/svg">
<g id="icon" opacity="0.8">
<rect x="0.5" y="0.5" width="23" height="23" rx="4.5" fill="#292929"/>
<path id="Ellipse 1" d="M6.75872 15C6.75872 15.8223 6.59195 16.5644 6.32466 17.099C6.05587 17.6365 5.69379 17.95 5.30872 17.95C4.92364 17.95 4.56157 17.6365 4.29278 17.099C4.02548 16.5644 3.85872 15.8223 3.85872 15C3.85872 14.1777 4.02548 13.4356 4.29278 12.901C4.56157 12.3635 4.92364 12.05 5.30872 12.05C5.69379 12.05 6.05587 12.3635 6.32466 12.901C6.59195 13.4356 6.75872 14.1777 6.75872 15Z" fill="#6633CC" stroke="black" stroke-width="0.1"/>
<path id="Vector 2" d="M21 16L20 17.8667V18.8L20.5 19.2667L21 19.7333V20.6667L20.5 21.6V22.5333L21 23" stroke="#6633CC" stroke-linecap="square" stroke-linejoin="round"/>
<path id="Ellipse 2" d="M19.95 15C19.95 15.8223 19.7832 16.5644 19.5159 17.099C19.2471 17.6365 18.8851 17.95 18.5 17.95C18.1149 17.95 17.7529 17.6365 17.4841 17.099C17.2168 16.5644 17.05 15.8223 17.05 15C17.05 14.1777 17.2168 13.4356 17.4841 12.901C17.7529 12.3635 18.1149 12.05 18.5 12.05C18.8851 12.05 19.2471 12.3635 19.5159 12.901C19.7832 13.4356 19.95 14.1777 19.95 15Z" fill="#6633CC" stroke="black" stroke-width="0.1"/>
<g id="Ellipse 3">
<mask id="path-5-inside-1_0_1" fill="white">
<path d="M2.49575 16.4541C2.0059 15.0317 1.8767 13.5195 2.11868 12.0408C2.36065 10.562 2.96695 9.15843 3.88817 7.94447C4.8094 6.7305 6.01949 5.74047 7.41985 5.05503C8.8202 4.36959 10.3712 4.00814 11.9465 4.00014C13.5218 3.99213 15.0768 4.33779 16.4848 5.00895C17.8928 5.68011 19.1139 6.65778 20.0488 7.86231C20.9836 9.06684 21.6057 10.4641 21.8643 11.9404C22.1229 13.4166 22.0108 14.93 21.537 16.3573L19.1304 15.6362C19.4846 14.5692 19.5685 13.4377 19.3751 12.3339C19.1818 11.2302 18.7167 10.1855 18.0177 9.28495C17.3188 8.38437 16.4058 7.65341 15.3531 7.15161C14.3004 6.64982 13.1378 6.39138 11.96 6.39737C10.7822 6.40336 9.62261 6.6736 8.57562 7.18607C7.52864 7.69854 6.62391 8.43874 5.93515 9.34637C5.24639 10.254 4.79308 11.3034 4.61217 12.409C4.43126 13.5146 4.52785 14.6452 4.89409 15.7086L2.49575 16.4541Z"/>
</mask>
<path d="M2.49575 16.4541C2.0059 15.0317 1.8767 13.5195 2.11868 12.0408C2.36065 10.562 2.96695 9.15843 3.88817 7.94447C4.8094 6.7305 6.01949 5.74047 7.41985 5.05503C8.8202 4.36959 10.3712 4.00814 11.9465 4.00014C13.5218 3.99213 15.0768 4.33779 16.4848 5.00895C17.8928 5.68011 19.1139 6.65778 20.0488 7.86231C20.9836 9.06684 21.6057 10.4641 21.8643 11.9404C22.1229 13.4166 22.0108 14.93 21.537 16.3573L19.1304 15.6362C19.4846 14.5692 19.5685 13.4377 19.3751 12.3339C19.1818 11.2302 18.7167 10.1855 18.0177 9.28495C17.3188 8.38437 16.4058 7.65341 15.3531 7.15161C14.3004 6.64982 13.1378 6.39138 11.96 6.39737C10.7822 6.40336 9.62261 6.6736 8.57562 7.18607C7.52864 7.69854 6.62391 8.43874 5.93515 9.34637C5.24639 10.254 4.79308 11.3034 4.61217 12.409C4.43126 13.5146 4.52785 14.6452 4.89409 15.7086L2.49575 16.4541Z" fill="#6633CC" stroke="black" stroke-width="0.2" mask="url(#path-5-inside-1_0_1)"/>
</g>
<path id="Vector 1" opacity="0.5" d="M8 14.8182L8.8 12.6364L10.4 17L12.4 11L13.6 15.3636L14.8 13.1818L16 14.8182" stroke="#CCCCCC" stroke-linejoin="round"/>
<rect x="0.5" y="0.5" width="23" height="23" rx="4.5" stroke="black"/>
</g>
</svg>
